# xmcd
#
# Track frame offsets:
#	150
#	16810
#	33116
#	49550
#	69350
#	90734
#	107929
#	122596
#	138295
#	156029
#	171494
#	183706
#	202536
#	217532
#	231713
#	248568
#	268908
#	285661
#	300240
#	315960
#
# Disc length: 4428 seconds
#
# Revision: 0
# Processed by: cddbd v1.5.2PL0 Copyright (c) Steve Scherf et al.
# Submitted via: EZCDAudioConverter 3.1.0.1
#
DISCID=04114a14
DTITLE=Hott Urban Volume 15 CAN
DYEAR=2016
DGENRE=blues
TTITLE0=DJ Khaled ft. Jay Z and Future - I Got the Keys
TTITLE1=The Game ft. Jeremih - All Eyez
TTITLE2=Juicy J ft. Travi$ Scott - No English
TTITLE3=Drake ft. Rihanna - Too Good
TTITLE4=Rich Gang ft. Jacquees, J-Soul, Ralo Stylz, Derez Lenard and Birdman /
TTITLE4=Pull Up
TTITLE5=Tory Lanez - Luv
TTITLE6=Lil Durk ft. Yo Gotti - Money Walk
TTITLE7=Joey Bada$$ - Devastated
TTITLE8=Partynextdoor ft. Drake - Come And See Me
TTITLE9=Malachiae Warren - Minute Maid
TTITLE10=Young Thug and Travis Scott ft. Quavo - Gangster Sh-t
TTITLE11=Jeezy ft. 2 Chainz and Future - Magic City Monday
TTITLE12=Lil Uzi Vert - Money Longer
TTITLE13=Ty Dolla $ign ft. Joe Moses - Wavy
TTITLE14=M City J.r. - Addicted To My Ex
TTITLE15=Red Cafe ft. E-40 - She A Bad One (BBA)
TTITLE16=Beyonce - Hold Up
TTITLE17=DJ Mustard ft. Nicki Minaj and Jeremih - Don't Hurt Me
TTITLE18=Wiz Khalifa ft. Lil Uzi Vert - Pull Up
TTITLE19=Lil Yachty - 1 Night
EXTD=
EXTT0=
EXTT1=
EXTT2=
EXTT3=
EXTT4=
EXTT5=
EXTT6=
EXTT7=
EXTT8=
EXTT9=
EXTT10=
EXTT11=
EXTT12=
EXTT13=
EXTT14=
EXTT15=
EXTT16=
EXTT17=
EXTT18=
EXTT19=
PLAYORDER=
